<svg xmlns="http://www.w3.org/2000/svg" width="466" height="130"><g fill="none"><path fill="#ED1B39" d="M347.3 38h-18.5c-1 0-1.3-.2-1.3-1.3V1.4c0-.8.1-1.1 1-1.1h9.4c1.7 1 3 2.5 4.5 3.8l10.3 8.8 10 8.8 9.8 8.4 9.4 8.2c.4.3.7.7.9 1.1v21.9c0 1.5 0 1.5 1.6 1.5h16.8c.4 0 1-.1 1.3.2.2.3.1.7.1 1v18.2c0 1.4-.1 1.5-1.4 1-2.3-1-4.7-1.8-7-2.7l-7.3-2.8-15.5-6c-1-.4-1.4-.2-2 .7L362 85.2l-7.8 13.2c-.4.7-.7 1.4-1.4 2h-24.4c-.7 0-.9-.2-.8-.8v-2.3c-.2-2.2 0-4.5 0-6.7l-.1-5.9c0-.6.2-1 .7-1.5 8.3-5.6 16.4-11.4 24.6-17l.6-.5c.6-.5.6-.9-.2-1.2-1.6-.6-3-1.3-4.7-1.8-.8-.2-1.1-.6-1.1-1.5v-22c0-.4.1-.9-.1-1.2"/><path fill="#FBBA1D" d="M315 17.3c-.3.3-.8.2-1.2.2h-14.9c-.9 0-1.1.2-1.1 1.1v22.7c0 1 .3 1.2 1.2 1.2h15c1 0 1.3.1 1.3 1.1-.1 4.6 0 9.1 0 13.7 0 .8-.3 1-1.1 1H299c-1 0-1.2.3-1.2 1.3V82c0 1 .3 1.3 1.3 1.3H314c1 0 1.3.1 1.3 1.2v14.8c0 .8-.2 1.1-1 1.1h-41.5a2 2 0 0 1-.7-1.4l-1.6-15.4-1.5-15.7-1-9-1.4-12.9-1.6-15.7a296 296 0 0 0-1.3-11.3c-.5-3.5-.7-7-1-10.4l-.7-6.3c-.1-.7-.3-1.4.2-2h20.4c1.3 1.2 2.3 2.5 3.3 3.8 3.4 4.1 7 8.2 10.3 12.3.5.7 1 1.2 1.9.7.2-.1.5 0 .8 0h14.7c.5 0 1-.1 1.4.2"/><path fill="#F89E20" d="M262.3.3c.2 3.3.6 6.4 1 9.6.2 2.8.4 5.6.8 8.3.1 1.3.2 2.6.5 3.8.3 1 .2 2.1.3 3.2l1.2 11.4.8 8.3.9 8.4c0 1.4.3 2.8.4 4.1l.5 3.7c.3 1.7.5 3.5.6 5.3.2 3 .6 5.9.9 8.8l.5 5.5c.3 3 .8 6.1 1 9.1 0 2.2.3 4.3.6 6.4.1 1.4.1 2.8.6 4.1h-22l-9.5.1c-1 0-1.3-.2-1.3-1.2V1.6c0-1 .2-1.3 1.3-1.3h21m52.6 17h-16c-.5 0-1-.2-1.4.5-.1.4-.4 0-.6-.1l-6-7.3-7-8.4c-.5-.5-1-1-1.2-1.7h31.7c.5 0 .8 0 .8.8v15.8l-.1.4"/><path fill="#27498E" d="M97.2 100.4H73.6c-6 0-10.6-4.7-10.6-10.7V11C63 5.1 67.7.4 73.6.4h9.5c.4.5.4 1.2.5 1.7 1 8 2.1 15.9 3.3 23.8l1.7 10.9 2.3 16.7.1.5c.2 3.1 0 6.3.1 9.4v2.3c-.2 1.9.3 3.5 2 4.7.5 1.2.8 2.4.9 3.7l3.5 24.8c0 .5.1 1-.3 1.6"/><path fill="#2756B6" d="M90.7 53.8c-.5-1.9-.5-3.9-.9-5.8l-1.5-9.9-1-7.3c-.3-2.7-1-5.3-1.2-8l-1.4-9.6-1.3-9.7c-.2-1-.2-2-.3-3.2h18.7c.6.3.9.8 1.3 1.3l18.6 23.7 4 4.9 1-3.7c1-4.2 2-8.5 3.3-12.6l2.9-10.7c.1-.4.2-.8.6-1a9.7 9.7 0 0 1 4.5 7.6c.2.4.1.7.1 1v36.5c-.8 0-1.2-.7-1.6-1.2l-8.6-11-1.2-1.4c-.4-.6-.7-.5-.9.2l-1.3 5.1c-1.7 6.1-3.4 12.2-4.9 18.3-1 4.4-2.2 8.7-3.4 13-2.1 7.4-4 15-6 22.4-.5 2.2-1.3 4.4-1.8 6.7a2 2 0 0 1-.6 1H97.2c0-2.3-.5-4.4-.8-6.6l-1.3-10-1.4-9.1-.8-4.3c.5-.5 1.2-.4 1.8-.4h11.8c2.6 0 3.2-.7 3.3-3.2.3-9.6.2-19.2.3-28.8 0-1.7-.2-3.4-.3-5-.1-1.3-.9-2-2.1-2.3H94.5c-2.4 0-3 .8-3.1 3l-.3 18.5c0 .6 0 1.2-.4 1.6"/><path fill="#5B5959" d="M443.2 51.3l-14-7.7-13.3-7.4c-.7-.3-.9-.7-.9-1.4V16.4c0-.9.1-1.1 1-.6l48.4 26.5c.6.3.8.6.8 1.3v15.6c0 .6-.2 1-.7 1.3l-49.1 26.7-.3.1c-.2-.2-.1-.6-.1-.8V67.9c0-.8.2-1.2.9-1.6l26.2-14.4 1.1-.6zM50.5 87.5L38 80.6l-36.8-20c-.7-.4-1-.9-1-1.7V43.6c0-.6.2-1 .8-1.4l48.8-26.6.5-.2c.3.4.2.7.2 1v18.4c0 .9-.3 1.3-1 1.7l-26 14.2-1 .6c.1.5.5.6.9.8l26 14.2c.8.5 1 1 1 1.9v19.3h.1zm179.9 29.2c1.8-1.8 4-1.7 5.6.1.4-.6.9-1.2 1.7-1.3 2.5-.5 3.8.4 4 3v6.6c0 .6-.2.7-.7.7-2.6.2-2.6.2-2.6-2.4v-3.8c0-.7 0-1.5-1-1.5-1.2 0-1.3.7-1.3 1.5v5.1c0 1-.3 1.2-1.2 1.1-2 0-2 0-2-2v-4.1c0-.8 0-1.6-1.2-1.6-1 0-1.1.8-1.2 1.5v5.2c0 .7 0 1-1 1-2.2 0-2.2 0-2.2-2.2v-6.8c0-1.1.3-1.4 1.3-1.3h.8c.8 0 1.2.2 1 1.2zm-136.4 0c1.5-1.7 4.5-1.8 5.6.2.5-.8 1-1.3 2-1.4 2.4-.4 3.5.4 3.7 2.8v7c0 .4-.2.5-.6.5h-2c-.6 0-.7-.2-.6-.8v-5.5c0-.7 0-1.3-1-1.4-1 0-1.3.5-1.3 1.3v5.5c0 .7-.2 1-1 1-2.3 0-2.3 0-2.3-2.4v-4.2c0-.7-.2-1.2-1-1.2-.9 0-1.2.4-1.2 1.2v5.5c0 .8-.3 1-1.1 1-2.2 0-2.2 0-2.2-2.1v-7.2c0-.8.1-1 .9-1h1.3c.8 0 1 .3.8 1.2zm308.8.2c2-2 4.3-2 5.7 0 .7-1.4 2-1.6 3.3-1.5 1.4.2 2 .7 2.2 2 .4 2.7.1 5.3.2 7.9 0 .3 0 .5-.4.5h-2.4c-.6 0-.5-.5-.5-.8v-5.3c0-.7.1-1.6-1-1.6-1.2 0-1.3.8-1.3 1.6v5c0 .8-.1 1.2-1.1 1.1-2 0-2 0-2-2v-4.1c0-.8 0-1.6-1.2-1.6-1.1 0-1.2.8-1.2 1.6v5.1c0 .7-.1 1-1 1-2.2 0-2.2 0-2.2-2.2v-7c0-.8 0-1.2 1-1h1.1c.7-.1 1.3 0 .8 1.3zm-140.6 7.8c-1.2 1.5-2.8 1.3-4.3 1-.9-.1-1.4-.7-1.6-1.7-.4-1.5-.1-3.1-.2-4.7v-1.6c0-2.2 0-2.2 2.2-2.2.8 0 1 .2 1 1v5c0 1 .3 1.8 1.5 1.7 1.2 0 1.3-.7 1.3-1.6v-5c0-.9.3-1 1-1 2.3 0 2.3-.1 2.3 2.2v6.8c0 1-.3 1.4-1.2 1.2h-.9c-.8.1-1.2-.1-1-1l-.1-.1zm32-7.7c.8-1.1 1.5-1.5 2.5-1.6 2.6-.2 3.6.6 3.7 3.2v6.5c0 .5 0 .7-.6.7-2.6.2-2.6.3-2.6-2.3v-4.1c0-.8-.3-1.3-1.2-1.3-.9 0-1.6.1-1.6 1.2v5.5c0 .7-.1 1-1 1-2.3 0-2.3 0-2.3-2.2v-7c0-.8.2-1.2 1-1h1c.7-.1 1.4-.1 1.1 1.3v.1zm-87.4 0c.8-1 1.5-1.5 2.5-1.6 2.7-.2 3.7.6 3.8 3.3v6.4c0 .6-.2.7-.7.7-2.6.2-2.6.2-2.6-2.3v-3.8c0-1-.1-1.6-1.3-1.6-1.1 0-1.5.6-1.5 1.5v5c0 1-.2 1.3-1.2 1.2-2 0-2 0-2-2v-7.2c0-.9.2-1.2 1-1h1c.8-.2 1.3 0 1 1.3v.1zm155.2 0c.8-1 1.4-1.4 2.2-1.5 2.9-.5 4.1.5 4.2 3.4v6c0 .7-.1 1-.8 1-2.5 0-2.5 0-2.5-2.4v-4.1c0-.8-.3-1.3-1.2-1.3-.9 0-1.5.1-1.5 1.2l-.1 5.6c0 .8-.2 1-1 1-2.2 0-2.2 0-2.2-2.3v-7c0-1 .2-1.2 1-1h.9c.7 0 1.6-.3 1 1.5v-.1zm-94.1 3.6v-2.8c.4-1.4 1.2-2.1 2.6-2.3a16 16 0 0 1 4.2 0c1.7.3 2.7 1.5 2.6 3.2v.4c-.9.4-1.8.1-2.6.2-.5.1-.6-.1-.7-.5-.2-1.1-1-1-1.8-1s-1 .6-1 1.3v3.3c0 .7.4 1 1 1 .7 0 1.6.3 1.7-.7 0-1.2.8-1 1.6-1 1.9 0 2.3.8 1.5 2.6-.5 1-1.3 1.4-2.2 1.5-1.5.2-2.9.2-4.3 0-1.6-.2-2.4-1.1-2.6-2.8v-2.4zm176.6.1l.1-3c.3-1.2 1.2-2 2.5-2.2 1.4-.2 2.9-.2 4.3 0 .8.1 1.5.4 2 1.2.5.8.6 1.6.5 2.5 0 .1-2.7.2-3 .1-.2 0-.2-.2-.2-.4-.2-1.3-1.2-1-2-1-1 0-.8 1-.9 1.6v2.7c0 .8.3 1.3 1.1 1.3s1.7 0 1.7-1c0-.7.4-.8 1-.8h.3c.7.2 1.6-.4 2 .4.5 1-.4 2.8-1.4 3.3-.6.4-1.3.5-2 .5h-2.7c-2.2-.1-3.2-1.1-3.3-3.3v-2 .1zm-15.7.3v-2c0-.5.1-1-.8-1.1-.7 0-.4-.8-.4-1.2 0-.4-.3-1 .4-1.1.8 0 .9-.5.8-1-.1-.8.2-1.1 1-1h.8c1-.1 1.7 0 1.4 1.2-.1.7.3.8.8.8h2.9c1 0 .6.7.7 1.2 0 .5.2 1.2-.7 1.2h-3c-.5 0-.7 0-.7.7v3.8c0 .7.4 1 1 1 .7 0 1.1-.2 1.1-1 0-1.7 1.4-.6 2-.8 1-.2.7.5.7 1 0 2.2-.9 3.2-3 3.2h-2.5c-1.6-.2-2.4-1-2.5-2.5V121zm-57.5 1v-2.5c0-.6.3-1.3-1-1.5-.5 0-.1-1.1-.2-1.7 0-.3-.1-.8.4-.7.8 0 .8-.5.8-1 0-2.7 2.5-4.3 5-3.2.7.3.3 1 .4 1.5 0 .3 0 .7-.5.8h-1c-.6.2-.7.7-.7 1.3 0 .7.5.6 1 .5 1-.1 1.2.3 1.2 1.3s-.2 1.5-1.3 1.3c-.8-.1-1 .3-.9 1v5.8c0 .7-.2 1-.8 1-2.4 0-2.4 0-2.4-2.4V122zm-19-3.5v-6.3c0-.6.1-.9.8-.9 3.1-.1 3.1-.2 3.1 3v10.5c0 .8-.2 1-1 1-2.9 0-2.9 0-2.9-2.9v-4.4zm40.6-1.7c.7-.9 1.3-1.3 2.1-1.4 2.3-.2 4 2.2 3.2 4.4-.2.3-.4.3-.6.3h-1.7c-.6 0-.9-.2-.8-.8 0-.7-.2-1.2-1-1.2s-1 .5-1 1.2v5.6c0 .7-.3 1-1 1-2.3 0-2.3 0-2.3-2.2v-7.1c0-.9.2-1.2 1-1h1c.8-.2 1.3 0 1 1.2h.1zm-196.3 0c.7-1 1.3-1.4 2.2-1.4 2.3-.1 4 2.3 3 4.4 0 .3-.3.3-.5.3h-1.7c-.6 0-.9-.2-.8-.8 0-.7-.2-1.2-1-1.2-.9 0-1 .5-1 1.2l-.1 5.6c0 .7-.2 1-1 1-2.2 0-2.2 0-2.2-2.2v-7.1c0-.9.2-1.2 1-1h1c.7-.2 1.3 0 1 1.2h.1zm-114.5 1.7v6.5c0 .6-.2.8-.8.8-2.5 0-2.5.1-2.5-2.3v-11.2c0-.7.2-1 1-1 2.3 0 2.3 0 2.3 2.3v4.9zm37.4 2.2v-4.3c0-.7.2-.8.8-.9 2.5 0 2.4 0 2.4 2.3v7c0 .7 0 1-.9 1-2.3 0-2.3 0-2.3-2.3v-2.8zm319.5 0v-4.3c0-.7.1-.8.7-.9 2.5 0 2.5 0 2.5 2.3v7c0 .7 0 1-1 1-2.3 0-2.3 0-2.3-2.3l.1-2.8zm-351 .1v4.3c0 .5-.2.7-.8.7-2.5.2-2.5.2-2.5-2.3v-7c0-.7.2-1 1-1 2.3 0 2.3 0 2.3 2.3v3zm-1.7-6.9c-1.6 0-2-.5-1.6-2.1 0-.3.1-.5.4-.5h2.4c1 .3.3 1.2.4 1.8.1.4 0 .8-.6.8h-1zm354.2 0c-1.7 0-1.8-.2-1.6-2 0-.4.2-.6.7-.6h1.2c1.1-.2 1.4.3 1.4 1.4 0 1.6-1 1-1.7 1.2zm-368.2 4.6v-1c0-2.8-.5-3.2-3.4-3-1 .1-1.6.6-1.7 1.7v4.3c0 1.7.5 2.1 2.6 2.1 2 0 2.4-.4 2.5-2.1v-2zm-9.1 0c0-1.2 0-2.4.2-3.6.3-2.1 1.2-3.2 3.4-3.6 2-.3 4-.3 6 0 2 .4 3 1.5 3.3 3.6.3 2.4.3 4.9 0 7.4-.3 2.1-1.4 3.2-3.6 3.5a18 18 0 0 1-5.5 0c-2.2-.3-3.3-1.4-3.6-3.6-.2-1.2-.3-2.5-.2-3.7zm110.6.3l1.3-.1c.4 0 .6-.3.8-.6 1-1.8 0-3.6-2-3.6-2.2 0-2.2 0-2.2 2.1 0 2.2 0 2.2 2.1 2.2zm-6-.3v-6.2c0-.7.1-1 1-1h6.6c3.3.2 4.6 1.6 4.6 4.9 0 4.5-1.2 5.8-5.8 5.8-2.5 0-2.6 0-2.5 2.4 0 1.2-.3 1.5-1.4 1.4-2.5 0-2.5 0-2.5-2.5v-4.8zm-27.6 2.1v1.6c0 .8.4 1.2 1.2 1.2.9 0 1.4-.3 1.4-1.2v-3c0-.8-.4-1.3-1.3-1.3s-1.3.4-1.3 1.3v1.4zm2.8 3.8c-1.4 1.7-2.9 1.8-4.4 1.2-1.4-.5-1.7-1.8-1.8-3.2v-3.6c0-1.3.4-2.6 1.8-3.1 1.5-.6 2.9-.5 4.2.9v-4.4c0-.7.2-.9.9-.9 2.4 0 2.4 0 2.4 2.4v11c0 1-.2 1.2-1 1.1h-1c-.9.1-1.3-.1-1-1.4h-.1zm181.7-2.3c0 .9.5 1.3 1.3 1.3 1 0 1.3-.5 1.4-1.3v-2.9c0-.8-.5-1.3-1.4-1.3-.9 0-1.3.5-1.3 1.3v2.9zm2.9 2.3c-1 1.2-1.9 1.5-3 1.5-1.8 0-2.9-.8-3.1-2.6-.3-1.7-.3-3.5 0-5.2.2-2.8 3.5-3.6 5.9-1.6v-4.3c0-.6 0-.9.8-.9 2.5 0 2.5 0 2.5 2.4v11c0 1-.3 1.3-1.3 1.1h-.7c-.8.1-1.4 0-1.1-1.4zm-77.2-3.7V119c0-.8-.6-1.2-1.4-1.2-.8 0-1.3.3-1.4 1.2v3c0 1 .6 1.3 1.5 1.3 1 0 1.3-.6 1.3-1.4v-1.3.1zm-2.8-4c.8-1 1.5-1.3 2.4-1.3 2.1-.1 3.3.8 3.6 3 .2 1.5.2 3.2 0 4.8-.2 1.2-.7 2.2-2 2.5-1.3.4-2.6.4-3.7-.6 0-.2 0-.3-.3-.5 0 1.2-.5 1.3-1.3 1.2H245c-.5 0-.7-.1-.7-.6V112c0-.4.2-.6.6-.6h.1c2.6-.2 2.6-.2 2.6 2.4v2.9zm-133.8 3.9v-1.4c0-.8-.4-1.2-1.2-1.3-.9 0-1.4.2-1.5 1.2v3c0 .9.4 1.3 1.4 1.3 1 0 1.3-.5 1.3-1.4v-1.4zm-3-3.7c1.3-1.7 2.8-1.7 4.2-1.3 1.5.3 2 1.6 2 3a14 14 0 0 1 0 4.1c-.2 3.2-3.1 4.3-6 2.1v4c0 .6-.1 1-1 1-2.2 0-2.2 0-2.2-2.3v-10.8c0-.9.1-1.3 1.1-1.2h.9c.7 0 1.3 0 1 1.4zm270.6 3.7v1.6c0 .9.3 1.3 1.2 1.3 1 0 1.5-.3 1.5-1.3v-3c0-1-.5-1.4-1.5-1.4-1.1 0-1.2.7-1.3 1.5v1.3h.1zm6 0v2.3c-.2 1.9-1 2.8-2.9 3H381c-1.8-.2-2.8-1.1-3-3v-4.5c.2-1.9 1.2-2.8 3-3h3.3c2 .2 3 1.1 3.1 3.2v2zm-232.7 1.9c0-1-.5-1.2-1.4-1.2-1 0-1.5.2-1.5 1.2s.5 1.3 1.5 1.2c.8.1 1.4-.2 1.4-1.2zm0-2.3v-1.4c0-.5.1-1.1-.5-1.3-.6-.1-1.3-.3-1.8.2-1 .8-2 .3-3.1.4-.4 0-.3-.5-.2-.7.1-1.1.8-1.7 1.9-1.9a16 16 0 0 1 4.8 0c1.3.3 2 1.1 2.1 2.4v7.3c0 .2.1.5-.1.6-1 0-2.1.3-3-.2-.4-.2-.4-.3-.9 0-1.2.6-2.6.4-4 0-.1 0-.3 0-.4-.2-1-.7-1.3-2.8-.8-4.3.4-1.2 1.3-1.7 2.5-1.7 1.2-.1 2.4-.2 3.5.8zm66.7 2.3c0-1-.6-1.2-1.5-1.2s-1.4.3-1.4 1.3.7 1.2 1.6 1c.9.3 1.4-.2 1.3-1.1zm0-2.3v-1.4c0-.5.1-1.1-.4-1.3-.6-.2-1.3-.3-1.9.2-1 .8-2 .2-3 .4-.4 0-.3-.4-.3-.7a2 2 0 0 1 1.7-1.8c1.7-.3 3.5-.3 5.2 0 1.2.3 2 1.1 2 2.4v7.2l-.1.5c-.3.2-3 .1-3.1-.2-.2-.4-.3-.3-.6-.1-1.2.8-2.5.5-3.8.4l-.7-.2c-1.5-1-1.2-2.6-1-4 0-1.2.8-2 2-2.1 1.3-.3 2.6-.4 4 .7zm87.4 2.3c0-1-.6-1.2-1.5-1.2s-1.4.3-1.4 1.2c0 1 .6 1.3 1.5 1.2 1 .2 1.4-.2 1.4-1.2zm0-2.3v-1.4c0-.5.1-1.1-.5-1.3-.6-.2-1.3-.3-1.8.2-1 .8-2 .3-3.1.4-.4 0-.3-.5-.2-.7.1-1.1.8-1.7 1.9-1.9a16 16 0 0 1 4.7 0c1.3.3 2.1 1 2.2 2.4v7.3l-.1.6c-.3.2-3 0-3-.3-.2-.5-.4-.2-.6-.1-1.3.8-2.6.5-3.9.4-.2 0-.5-.1-.6-.3-1.6-1-1.2-2.6-1.1-4 0-1.2.9-1.9 2-2 1.4-.3 2.7-.4 4.1.7zm113.8 2.3c0-1-.7-1.2-1.5-1.2-1 0-1.5.3-1.5 1.3s.7 1.2 1.6 1c.9.3 1.4-.1 1.4-1.1zm0-2.3v-1.4c0-.5 0-1.1-.5-1.3-.6-.2-1.3-.3-1.8.2-1 .8-2 .2-3 .4-.5 0-.4-.4-.4-.7.1-1 .8-1.7 1.9-1.9a15 15 0 0 1 4.9 0c1.3.3 2 1.2 2 2.6l.1 7c0 .3 0 .6-.2.7-.4.2-2.8 0-3-.4-.2-.3-.4-.2-.5 0-1.2.8-2.5.5-3.8.4l-.7-.2c-1.6-1-1.3-2.6-1.2-4 .1-1.2.9-2 2-2.1 1.4-.3 2.7-.4 4.2.7zm39.4 2.4c0-1-.6-1.3-1.5-1.3s-1.5.1-1.5 1.2c0 1 .5 1.3 1.4 1.2.9.1 1.5-.1 1.5-1.1h.1zm-.1-2.4v-1.3c0-.5.2-1.2-.5-1.4-.6-.2-1.3-.3-1.8.2-1 .8-2 .3-3 .4-.5 0-.4-.5-.3-.7.1-1.1.8-1.7 1.9-1.9 1.6-.2 3.2-.2 4.7 0 1.4.3 2.2 1.1 2.2 2.5v7.8c-.4.2-3 0-3.1-.3-.2-.5-.4-.3-.6-.1-1.2.8-2.6.5-3.9.4l-.6-.3c-1.5-1-1.2-2.6-1.1-4 0-1.2.9-1.9 2-2 1.4-.3 2.7-.4 4.1.7zm-176.6 2.4c0-1-.6-1.3-1.5-1.3s-1.5.2-1.5 1.2.7 1.3 1.6 1.2c.9.1 1.4-.2 1.4-1.1zm0-2.4v-1.4c0-.5 0-1-.4-1.3-.7-.2-1.4-.3-2 .2-1 .8-2 .3-3 .4-.4 0-.3-.5-.3-.7a2 2 0 0 1 1.7-1.8c1.8-.3 3.5-.4 5.3 0 1.2.3 1.9 1.1 1.9 2.6v7c0 .3 0 .7-.5.6-1-.3-2 .7-2.8-.5 0-.2-.3 0-.4 0-1 .9-2.3.6-3.5.6a2 2 0 0 1-1-.3c-1.6-1-1.2-2.6-1.2-4 .1-1.1.8-1.9 1.9-2 1.4-.4 2.8-.5 4.3.6zm-153.9 2.3c0-1-.5-1.2-1.4-1.2-1 0-1.5.2-1.5 1.2s.6 1.3 1.5 1.2c1 .1 1.4-.2 1.4-1.2zm0-2.5v-1.2c0-.5.1-1-.4-1.3-.6-.2-1.3-.3-1.8.2-1 .8-2 .2-3 .4-.5 0-.4-.4-.4-.6.1-1.2.9-1.8 2-2 1.5-.2 3-.2 4.6 0 1.4.3 2.2 1.1 2.3 2.6v7c0 .5 0 .8-.6.7-.9-.3-2 .7-2.7-.5-.2-.2-.4 0-.5.1-.6.4-1.1.5-1.7.5-3.3.1-4.1-.7-4-4 .1-1.3.8-2.1 2-2.4a6 6 0 0 1 4.1.5h.1zm56.6-1.3c0-1-.6-1.3-1.6-1.3s-1.5.4-1.5 1.4c0 1.3 1.1.4 1.7.8.4-.4 1.4.4 1.4-.9zm0 2.5h-2c-.5 0-1.2-.2-1 .8 0 .7-.2 1.6 1 1.7.7 0 1.5.2 1.9-.8.1-.3 2.9-.4 3-.1.2.1.2.4.1.6-.2 1.3-1.2 2.2-2.6 2.4-1.3.2-2.6.2-3.8 0-1.8-.2-2.7-1-2.9-2.7v-4.8c.2-1.8 1.1-2.7 3-2.8h3.6c1.7.1 2.5 1 2.8 2.8.4 3 .4 3-2.6 3l-.5-.1zm151.4-2.5c0-1-.6-1.3-1.5-1.3-1 0-1.6.4-1.5 1.4 0 1.3 1 .4 1.6.7.5-.2 1.5.5 1.4-.8zm0 2.5h-2c-.3 0-1-.3-1 .4-.1.6-.2 1.4.4 1.9.5.4 2 .2 2.4-.3.3-.4 2.8-.8 3.2-.5.2.2.1.5 0 .7-.1 1.3-1.1 2.2-2.5 2.4-1.3.2-2.5.2-3.8 0-1.8-.1-2.8-1-3-2.8a30 30 0 0 1 0-4.7c.2-1.8 1.2-2.7 3-2.8h3.5c1.8.1 2.7 1 3 2.7.3 3 .3 3-2.6 3h-.6zm-219.8-7l1.6-3c.7-1 1.7-.2 2.7-.6-1.8 2.8-2.9 3.8-4.3 3.6zm304.7-3.5c-2.5 3.4-2.8 3.6-4.4 3.5.6-1 1.1-2.2 1.8-3.2.6-.7 1.6-.1 2.6-.3z"/><path fill="#3E6DCD" d="M107.8 100.4c1.8-6.8 3.7-13.4 5.4-20.2 1.7-6.9 3.7-13.7 5.5-20.6 1.4-5.4 2.7-10.9 4.2-16.3 1-3.3 1.8-6.6 2.7-10 0-.2 0-.7.4-.7s.6.3.8.5l9.9 12.7c.3.5.8.9 1.3 1.5V9.8c.3.5.2 1 .2 1.3v78.7c-.1 6-4.7 10.6-10.6 10.6h-19.8m25.7-98.2c-1 3.3-1.7 6.6-2.7 10-1.7 5.7-3 11.7-4.6 17.5-.1.4 0 1-.5 1s-.4-.5-.6-.8L108.6 9.1 101.8.3h26.6a8 8 0 0 1 5 2"/><path fill="#63B291" d="M189.9 47.8c.5 0 .7.3 1 .7 3.2 6.4 6.6 12.7 10 19l7.3 14.2c.2.2.3.6.6.7v4c-.5.5-1 .3-1.6.2l-34.7-7.2-18.6-4c-1.3-.2-1.4-.2-1.4 1.3v21.8c0 .6.2 1.3-.3 1.9-.5-.4-.3-1-.3-1.3V22.6l.4.1c.3.7.2 1.4.2 2V59c0 1.1.3 1.3 1.3.9l15.1-5.2 19.4-6.6c.5-.2 1-.6 1.6-.2"/><path fill="#EC4456" d="M382.8 39.4l-12-10.4-16.2-14c-4.2-3.7-8.5-7.2-12.6-11-1.4-1.2-2.9-2.2-4-3.7h56.8c.4.8 0 1.5 0 2.1-.7 4.1-1.7 8.1-2.4 12.2-1.1 6.2-2.6 12.3-3.7 18.5l-.6 3.3c-.2.7.1 1 .8 1H401c.7 0 1-.4 1-1v-34c0-.7-.1-1.4.4-2 .4.2.2.7.2 1v35.3c0 1-.3 1.3-1.3 1.3h-17c-1.2-.1-1.8.1-1.6 1.4M347.3 38c.4.4.2.9.2 1.3V61c0 .8.2 1.3 1 1.5 1.8.5 3.5 1.3 5.2 2 .4 0 .8.1.8.6 0 .4-.4.6-.7.8l-7 5L329 83c-1.3.8-1.5 1.6-1.5 3v11.2c-.2-.4-.1-.8-.1-1.2V64c-.1-1.2.3-1.4 1.3-1.4h17.4c.8 0 1.1 0 1.1-1V38"/><path fill="#1E784F" d="M152.2 100.4V75.6c0-1.1.6-.7 1.1-.6l10.7 2.3 32 6.6 12 2.5h.8v13.3c0 .6-.2.7-.7.7h-55.9"/><path fill="#EE4136" d="M352.8 100.3l3-5.1c3-5.4 6.2-10.8 9.4-16.1l4.4-7.5c.3-.6.6-.7 1.2-.5l14.8 5.8c2.4 1 5 1.7 7.3 2.8 2.4 1 5 1.6 7.4 2.8.6.4 1.4.5 2.2.8V63c.3.3.1.7.1 1v35.3c0 .8-.1 1.1-1 1.1h-48.8"/><path fill="#D51E42" d="M402.5.4v36c0 1-.3 1.4-1.5 1.4-4-.1-8.2 0-12.3 0-1.4 0-1.3 0-1-1.4.5-1.9.7-3.8 1.1-5.7l1.8-9.2c1-4.4 1.7-8.8 2.6-13.1l1.6-8h7.7"/><path fill="#A2DDC2" d="M152.2 22.7h-.2V1.2c0-.8.3-.9 1-.9h12l-.1.2c-.7 1.8-1.8 3.4-2.7 5l-8.6 15.6c-.3.6-.5 1.4-1.4 1.6"/><path fill="#1C7448" d="M152.2 22.7c1.3-1.6 2.1-3.6 3.1-5.4l8.8-15.8c.2-.3.3-.8.8-1h31c.4 0 .6.2.5.7l-1.2 9-1.3 10.2-1 7.7-1.1 8.6-1.3 9.8c0 .4-.2 1-.6 1.3l-18.5 6.3-17.7 6.1c-1.5.5-1.5.5-1.5-1V22.7"/><path fill="#1F8E5B" d="M202.6 49.3c0 .8.2 1.1 1 1h5.3c1.7 0 2.8-1.1 2.8-2.8V23c0-1.6-1.1-2.7-2.8-2.7h-5.3c-.9 0-1 .2-1 1v28.1M164.9.4h52c5.3 0 10.2 4.8 10.2 10.1v50c0 5-4.5 9.7-9.5 10h-7.7c-.8 0-1 .2-1 1v11c-.7 0-.9-.5-1-.9l-8-15-9.2-17.6c-.3-.5-.9-.7-.9-1.4.8-2.8 1-5.7 1.3-8.6a8227 8227 0 0 0 4.8-36.6c.2-1.3 0-1.4-1.4-1.4H167c-.6 0-1.3.1-2-.2-.1 0-.2-.2 0-.4"/></g></svg>