<?xml version="1.0" encoding="UTF-8"?>
<svg width="256px" height="256px" viewBox="0 0 256 256" version="1.1" xmlns="http://www.w3.org/2000/svg" xmlns:xlink="http://www.w3.org/1999/xlink">
    <!-- Generator: Sketch 43.1 (39012) - http://www.bohemiancoding.com/sketch -->
    <title>Untitled 2</title>
    <desc>Created with Sketch.</desc>
    <defs></defs>
    <g id="Page-3" stroke="none" stroke-width="1" fill="none" fill-rule="evenodd">
        <g id="Group-5" transform="translate(32.000000, 5.000000)" fill-rule="nonzero">
            <g id="Group-3" transform="translate(0.000000, 131.786982)">
                <path d="M85.2071006,19.6544379 C84.8662722,19.9952663 84.2982249,19.8816568 83.843787,19.8816568 L66.9159763,19.8816568 C65.8934911,19.8816568 65.6662722,20.1088757 65.6662722,21.1313609 L65.6662722,46.9207101 C65.6662722,48.0568047 66.0071006,48.2840237 67.0295858,48.2840237 L84.0710059,48.2840237 C85.2071006,48.2840237 85.547929,48.3976331 85.547929,49.5337278 C85.4343195,54.7597633 85.547929,59.8721893 85.547929,65.0982249 C85.547929,66.0071006 85.2071006,66.2343195 84.2982249,66.2343195 L67.0295858,66.2343195 C65.8934911,66.2343195 65.6662722,66.5751479 65.6662722,67.7112426 L65.6662722,93.1597633 C65.6662722,94.295858 66.0071006,94.6366864 67.1431953,94.6366864 L84.0710059,94.6366864 C85.2071006,94.6366864 85.547929,94.7502959 85.547929,96 L85.547929,112.814201 C85.547929,113.723077 85.3207101,114.063905 84.4118343,114.063905 L37.2639053,114.063905 C36.7937447,113.663784 36.5066395,113.089574 36.4686391,112.473373 L34.6508876,94.9775148 L32.9467456,77.1408284 L31.8106509,66.9159763 L30.2201183,52.260355 L28.4023669,34.4236686 C27.9923334,30.1353138 27.4999348,25.8552338 26.9254438,21.5857988 C26.3573964,17.6094675 26.1301775,13.6331361 25.7893491,9.7704142 L24.9940828,2.61301775 C24.8804734,1.81775148 24.6532544,1.02248521 25.2213018,0.340828402 L48.3976331,0.340828402 C49.8745562,1.70414201 51.0106509,3.18106509 52.1467456,4.65798817 C56.0094675,9.31597633 60.0994083,13.9739645 63.8485207,18.6319527 C64.416568,19.4272189 64.9846154,19.9952663 66.0071006,19.4272189 C66.2343195,19.3136095 66.5751479,19.4272189 66.9159763,19.4272189 L83.616568,19.4272189 C84.1846154,19.4272189 84.7526627,19.3136095 85.2071006,19.6544379" id="Shape" fill="#FBBA1D"></path>
                <path d="M25.3349112,0.340828402 C25.5621302,4.08994083 26.016568,7.61183432 26.4710059,11.2473373 C26.6982249,14.4284024 26.9254438,17.6094675 27.3798817,20.6769231 C27.4934911,22.1538462 27.6071006,23.6307692 27.947929,24.9940828 C28.2887574,26.1301775 28.1751479,27.3798817 28.2887574,28.6295858 L29.652071,41.5810651 L30.5609467,51.0106509 L31.583432,60.5538462 C31.583432,62.1443787 31.9242604,63.7349112 32.0378698,65.2118343 L32.6059172,69.4153846 C32.9467456,71.3467456 33.1739645,73.391716 33.287574,75.4366864 C33.5147929,78.8449704 33.9692308,82.139645 34.3100592,85.4343195 L34.8781065,91.6828402 C35.2189349,95.0911243 35.7869822,98.6130178 36.0142012,102.021302 C36.0142012,104.52071 36.3550296,106.906509 36.695858,109.292308 C36.8094675,110.88284 36.8094675,112.473373 37.3775148,113.950296 L12.383432,113.950296 L1.59053254,114.063905 C0.45443787,114.063905 0.113609467,113.836686 0.113609467,112.700592 L0.113609467,1.81775148 C0.113609467,0.681656805 0.340828402,0.340828402 1.59053254,0.340828402 L25.4485207,0.340828402 M85.2071006,19.6544379 L67.0295858,19.6544379 C66.4615385,19.6544379 65.8934911,19.4272189 65.4390533,20.2224852 C65.3254438,20.6769231 64.9846154,20.2224852 64.7573964,20.1088757 L57.9408284,11.8153846 L49.9881657,2.27218935 C49.4201183,1.70414201 48.852071,1.13609467 48.6248521,0.340828402 L84.6390533,0.340828402 C85.2071006,0.340828402 85.547929,0.340828402 85.547929,1.24970414 L85.547929,19.2 L85.4343195,19.6544379" id="Shape" fill="#F89E20"></path>
            </g>
            <g id="Group">
                <path d="M38.8544379,114.063905 L12.0426036,114.063905 C5.2260355,114.063905 0,108.72426 0,101.907692 L0,12.4970414 C0,5.79408284 5.33964497,0.45443787 12.0426036,0.45443787 L22.835503,0.45443787 C23.2899408,1.02248521 23.2899408,1.81775148 23.4035503,2.38579882 C24.539645,11.4745562 25.7893491,20.4497041 27.1526627,29.4248521 L29.0840237,41.808284 L31.6970414,60.7810651 L31.8106509,61.3491124 C32.0378698,64.8710059 31.8106509,68.5065089 31.9242604,72.0284024 L31.9242604,74.6414201 C31.6970414,76.8 32.2650888,78.6177515 34.1964497,79.9810651 C34.7271321,81.3291416 35.0711417,82.7434036 35.2189349,84.1846154 L39.1952663,112.359763 C39.1952663,112.927811 39.3088757,113.495858 38.8544379,114.177515" id="Shape" fill="#27498E"></path>
                <path d="M31.4698225,61.1218935 C30.9017751,58.9633136 30.9017751,56.6911243 30.4473373,54.5325444 L28.7431953,43.2852071 L27.6071006,34.991716 C27.2662722,31.9242604 26.4710059,28.9704142 26.243787,25.9029586 L24.6532544,14.9964497 L23.1763314,3.97633136 C22.9491124,2.84023669 22.9491124,1.70414201 22.835503,0.340828402 L44.0804734,0.340828402 C44.7621302,0.681656805 45.1029586,1.24970414 45.5573964,1.81775148 L66.6887574,28.7431953 L71.2331361,34.3100592 L72.3692308,30.1065089 C73.5053254,25.3349112 74.6414201,20.4497041 76.1183432,15.791716 L79.4130178,3.63550296 C79.5266272,3.18106509 79.6402367,2.72662722 80.0946746,2.49940828 C83.0863024,4.38971608 84.9881403,7.60170899 85.2071006,11.1337278 C85.4343195,11.5881657 85.3207101,11.9289941 85.3207101,12.2698225 L85.3207101,53.7372781 C84.4118343,53.7372781 83.9573964,52.9420118 83.5029586,52.3739645 L73.7325444,39.8769231 L72.3692308,38.2863905 C71.9147929,37.6047337 71.5739645,37.7183432 71.3467456,38.5136095 L69.8698225,44.3076923 C67.9384615,51.2378698 66.0071006,58.1680473 64.3029586,65.0982249 C63.1668639,70.0970414 61.8035503,74.9822485 60.4402367,79.8674556 C58.0544379,88.2745562 55.895858,96.9088757 53.6236686,105.315976 C53.0556213,107.815385 52.1467456,110.314793 51.5786982,112.927811 C51.4693846,113.365816 51.2320752,113.761332 50.8970414,114.063905 L38.8544379,114.063905 C38.8544379,111.450888 38.2863905,109.065089 37.9455621,106.56568 L36.4686391,95.2047337 L34.8781065,84.8662722 L33.9692308,79.9810651 C34.5372781,79.4130178 35.3325444,79.5266272 36.0142012,79.5266272 L49.4201183,79.5266272 C52.3739645,79.5266272 53.0556213,78.7313609 53.1692308,75.8911243 C53.5100592,64.9846154 53.3964497,54.0781065 53.5100592,43.1715976 C53.5100592,41.2402367 53.2828402,39.3088757 53.1692308,37.4911243 C53.0556213,36.0142012 52.1467456,35.2189349 50.783432,34.8781065 L35.7869822,34.8781065 C33.060355,34.8781065 32.3786982,35.7869822 32.2650888,38.2863905 L31.9242604,59.304142 C31.9242604,59.9857988 31.9242604,60.6674556 31.4698225,61.1218935" id="Shape" fill="#2756B6"></path>
                <path d="M50.8970414,114.063905 C52.9420118,106.338462 55.1005917,98.8402367 57.0319527,91.1147929 C58.9633136,83.2757396 61.235503,75.5502959 63.2804734,67.7112426 C64.8710059,61.5763314 66.347929,55.3278107 68.052071,49.1928994 C69.1881657,45.443787 70.0970414,41.6946746 71.1195266,37.8319527 C71.1195266,37.6047337 71.1195266,37.0366864 71.5739645,37.0366864 C72.0284024,37.0366864 72.2556213,37.3775148 72.4828402,37.6047337 L83.7301775,52.0331361 C84.0710059,52.6011834 84.6390533,53.0556213 85.2071006,53.7372781 L85.2071006,11.1337278 C85.547929,11.7017751 85.4343195,12.2698225 85.4343195,12.6106509 L85.4343195,102.021302 C85.3207101,108.83787 80.0946746,114.063905 73.391716,114.063905 L50.8970414,114.063905 M80.0946746,2.49940828 C78.9585799,6.24852071 78.1633136,9.99763314 77.0272189,13.860355 C75.095858,20.3360947 73.6189349,27.1526627 71.8011834,33.7420118 C71.687574,34.1964497 71.8011834,34.8781065 71.2331361,34.8781065 C70.6650888,34.8781065 70.7786982,34.3100592 70.5514793,33.9692308 L51.8059172,10.3384615 L44.0804734,0.340828402 L74.3005917,0.340828402 C76.3997664,0.419019741 78.407048,1.2219324 79.9810651,2.61301775" id="Shape" fill="#3E6DCD"></path>
            </g>
            <g id="Group-4" transform="translate(104.520710, 131.786982)">
                <path d="M23.0627219,43.1715976 L2.04497041,43.1715976 C0.90887574,43.1715976 0.568047337,42.9443787 0.568047337,41.6946746 L0.568047337,1.59053254 C0.568047337,0.681656805 0.681656805,0.340828402 1.70414201,0.340828402 L12.383432,0.340828402 C14.3147929,1.47692308 15.791716,3.18106509 17.495858,4.65798817 L29.1976331,14.6556213 L40.5585799,24.6532544 L51.6923077,34.1964497 L62.3715976,43.512426 C62.8260355,43.8532544 63.1668639,44.3076923 63.3940828,44.7621302 L63.3940828,69.6426036 C63.3940828,71.3467456 63.3940828,71.3467456 65.2118343,71.3467456 L84.2982249,71.3467456 C84.7526627,71.3467456 85.4343195,71.2331361 85.7751479,71.5739645 C86.0023669,71.9147929 85.8887574,72.3692308 85.8887574,72.7100592 L85.8887574,93.3869822 C85.8887574,94.9775148 85.7751479,95.0911243 84.2982249,94.5230769 C81.6852071,93.3869822 78.9585799,92.4781065 76.3455621,91.4556213 L68.052071,88.2745562 L50.4426036,81.4579882 C49.3065089,81.0035503 48.852071,81.2307692 48.1704142,82.2532544 L39.7633136,96.7952663 L30.9017751,111.791716 C30.4473373,112.586982 30.1065089,113.382249 29.3112426,114.063905 L1.59053254,114.063905 C0.795266272,114.063905 0.568047337,113.836686 0.681656805,113.15503 L0.681656805,110.542012 C0.45443787,108.042604 0.681656805,105.429586 0.681656805,102.930178 L0.568047337,96.2272189 C0.568047337,95.5455621 0.795266272,95.0911243 1.36331361,94.5230769 C10.7928994,88.1609467 19.9952663,81.5715976 29.3112426,75.2094675 L29.9928994,74.6414201 C30.6745562,74.0733728 30.6745562,73.6189349 29.7656805,73.2781065 C27.947929,72.5964497 26.3573964,71.8011834 24.4260355,71.2331361 C23.5171598,71.0059172 23.1763314,70.5514793 23.1763314,69.5289941 L23.1763314,44.5349112 C23.1763314,44.0804734 23.2899408,43.512426 23.0627219,43.1715976" id="Shape" fill="#ED1B39"></path>
                <path d="M63.3940828,44.7621302 L49.7609467,32.9467456 L31.356213,17.0414201 C26.5846154,12.8378698 21.6994083,8.86153846 17.0414201,4.5443787 C15.4508876,3.18106509 13.7467456,2.04497041 12.4970414,0.340828402 L77.0272189,0.340828402 C77.4816568,1.24970414 77.0272189,2.04497041 77.0272189,2.72662722 C76.2319527,7.38461538 75.095858,11.9289941 74.3005917,16.5869822 C73.0508876,23.6307692 71.3467456,30.5609467 70.0970414,37.6047337 L69.4153846,41.3538462 C69.1881657,42.1491124 69.5289941,42.4899408 70.3242604,42.4899408 L84.0710059,42.4899408 C84.8662722,42.4899408 85.2071006,42.035503 85.2071006,41.3538462 L85.2071006,2.72662722 C85.2071006,1.93136095 85.0934911,1.13609467 85.6615385,0.45443787 C86.1159763,0.681656805 85.8887574,1.24970414 85.8887574,1.59053254 L85.8887574,41.6946746 C85.8887574,42.8307692 85.547929,43.1715976 84.4118343,43.1715976 L65.0982249,43.1715976 C63.7349112,43.0579882 63.0532544,43.2852071 63.2804734,44.7621302 M23.0627219,43.1715976 C23.5171598,43.6260355 23.2899408,44.1940828 23.2899408,44.6485207 L23.2899408,69.3017751 C23.2899408,70.2106509 23.5171598,70.7786982 24.4260355,71.0059172 C26.4710059,71.5739645 28.4023669,72.4828402 30.3337278,73.2781065 C30.7881657,73.2781065 31.2426036,73.391716 31.2426036,73.9597633 C31.2426036,74.4142012 30.7881657,74.6414201 30.4473373,74.8686391 L22.4946746,80.5491124 L2.27218935,94.295858 C0.795266272,95.2047337 0.568047337,96.1136095 0.568047337,97.704142 L0.568047337,110.428402 C0.340828402,109.973964 0.45443787,109.519527 0.45443787,109.065089 L0.45443787,72.7100592 C0.340828402,71.3467456 0.795266272,71.1195266 1.93136095,71.1195266 L21.6994083,71.1195266 C22.608284,71.1195266 22.9491124,71.1195266 22.9491124,69.983432 L22.9491124,43.1715976" id="Shape" fill="#EC4456"></path>
                <path d="M29.3112426,113.950296 L32.7195266,108.156213 C36.1278107,102.021302 39.7633136,95.8863905 43.3988166,89.8650888 L48.3976331,81.3443787 C48.7384615,80.6627219 49.0792899,80.5491124 49.7609467,80.7763314 L66.5751479,87.3656805 C69.3017751,88.5017751 72.2556213,89.2970414 74.8686391,90.5467456 C77.5952663,91.6828402 80.5491124,92.364497 83.2757396,93.7278107 C83.9573964,94.1822485 84.8662722,94.295858 85.7751479,94.6366864 L85.7751479,71.5739645 C86.1159763,71.9147929 85.8887574,72.3692308 85.8887574,72.7100592 L85.8887574,112.814201 C85.8887574,113.723077 85.7751479,114.063905 84.7526627,114.063905 L29.3112426,114.063905" id="Shape" fill="#EE4136"></path>
                <path d="M85.7751479,0.45443787 L85.7751479,41.3538462 C85.7751479,42.4899408 85.4343195,42.9443787 84.0710059,42.9443787 C79.5266272,42.8307692 74.7550296,42.9443787 70.0970414,42.9443787 C68.5065089,42.9443787 68.6201183,42.9443787 68.9609467,41.3538462 C69.5289941,39.1952663 69.756213,37.0366864 70.2106509,34.8781065 L72.2556213,24.4260355 C73.391716,19.4272189 74.1869822,14.4284024 75.2094675,9.54319527 L77.0272189,0.45443787 L85.7751479,0.45443787" id="Shape" fill="#D51E42"></path>
            </g>
            <g id="Group-2" transform="translate(104.520710, 0.000000)">
                <path d="M44.1940828,54.3053254 C44.7621302,54.3053254 44.9893491,54.6461538 45.3301775,55.1005917 C48.9656805,62.3715976 52.8284024,69.5289941 56.6911243,76.6863905 L64.9846154,92.8189349 C65.2118343,93.0461538 65.3254438,93.5005917 65.6662722,93.6142012 L65.6662722,98.1585799 C65.0982249,98.7266272 64.5301775,98.4994083 63.8485207,98.3857988 L24.4260355,90.2059172 L3.29467456,85.6615385 C1.81775148,85.4343195 1.70414201,85.4343195 1.70414201,87.1384615 L1.70414201,111.905325 C1.70414201,112.586982 1.93136095,113.382249 1.36331361,114.063905 C0.795266272,113.609467 1.02248521,112.927811 1.02248521,112.586982 L1.02248521,25.6757396 L1.47692308,25.7893491 C1.81775148,26.5846154 1.70414201,27.3798817 1.70414201,28.0615385 L1.70414201,67.0295858 C1.70414201,68.2792899 2.04497041,68.5065089 3.18106509,68.052071 L20.3360947,62.1443787 L42.3763314,54.6461538 C42.9443787,54.4189349 43.512426,53.964497 44.1940828,54.4189349" id="Shape" fill="#63B291"></path>
                <path d="M1.36331361,114.063905 L1.36331361,85.8887574 C1.36331361,84.6390533 2.04497041,85.0934911 2.61301775,85.2071006 L14.7692308,87.8201183 L51.1242604,95.3183432 L64.7573964,98.1585799 L65.6662722,98.1585799 L65.6662722,113.268639 C65.6662722,113.950296 65.4390533,114.063905 64.8710059,114.063905 L1.36331361,114.063905" id="Shape" fill="#1E784F"></path>
                <path d="M1.36331361,25.7893491 L1.13609467,25.7893491 L1.13609467,1.36331361 C1.13609467,0.45443787 1.47692308,0.340828402 2.27218935,0.340828402 L15.9053254,0.340828402 L15.791716,0.568047337 C14.9964497,2.61301775 13.7467456,4.43076923 12.7242604,6.24852071 L2.95384615,23.9715976 C2.61301775,24.6532544 2.38579882,25.5621302 1.36331361,25.7893491" id="Shape" fill="#A2DDC2"></path>
                <path d="M1.36331361,25.7893491 C2.84023669,23.9715976 3.74911243,21.6994083 4.8852071,19.6544379 L14.8828402,1.70414201 C15.1100592,1.36331361 15.2236686,0.795266272 15.791716,0.568047337 L51.0106509,0.568047337 C51.4650888,0.568047337 51.6923077,0.795266272 51.5786982,1.36331361 L50.2153846,11.5881657 L48.7384615,23.1763314 L47.6023669,31.9242604 L46.3526627,41.6946746 L44.8757396,52.8284024 C44.8757396,53.2828402 44.6485207,53.964497 44.1940828,54.3053254 L23.1763314,61.4627219 L3.06745562,68.3928994 C1.36331361,68.9609467 1.36331361,68.9609467 1.36331361,67.2568047 L1.36331361,25.7893491" id="Shape" fill="#1C7448"></path>
                <path d="M58.6224852,56.0094675 C58.6224852,56.9183432 58.8497041,57.2591716 59.7585799,57.1455621 L65.7798817,57.1455621 C67.7112426,57.1455621 68.9609467,55.895858 68.9609467,53.964497 L68.9609467,26.1301775 C68.9609467,24.312426 67.7112426,23.0627219 65.7798817,23.0627219 L59.7585799,23.0627219 C58.7360947,23.0627219 58.6224852,23.2899408 58.6224852,24.1988166 L58.6224852,56.1230769 M15.791716,0.45443787 L74.8686391,0.45443787 C80.8899408,0.45443787 86.4568047,5.90769231 86.4568047,11.9289941 L86.4568047,68.7337278 C86.4568047,74.4142012 81.3443787,79.7538462 75.6639053,80.0946746 L66.9159763,80.0946746 C66.0071006,80.0946746 65.7798817,80.3218935 65.7798817,81.2307692 L65.7798817,93.7278107 C64.9846154,93.7278107 64.7573964,93.1597633 64.643787,92.7053254 L55.5550296,75.6639053 L45.1029586,55.6686391 C44.7621302,55.1005917 44.0804734,54.8733728 44.0804734,54.0781065 C44.9893491,50.8970414 45.216568,47.6023669 45.5573964,44.3076923 C47.4062404,30.4514327 49.2239965,16.5910428 51.0106509,2.72662722 C51.2378698,1.24970414 51.0106509,1.13609467 49.4201183,1.13609467 L18.1775148,1.13609467 C17.495858,1.13609467 16.7005917,1.24970414 15.9053254,0.90887574 C15.791716,0.90887574 15.6781065,0.681656805 15.9053254,0.45443787" id="Shape" fill="#1F8E5B"></path>
            </g>
        </g>
    </g>
</svg>